<svg xmlns="http://www.w3.org/2000/svg" height="800" width="1200" version="1.1" xml:space="preserve" y="0" x="0" id="Ebene_1" viewBox="-20.28 -14.475 175.76 86.85"><style id="style12029" type="text/css">.st0{fill:#044c88}</style><path id="path12031" d="M16.1 41.1c0 2.5-.6 3.6-2.1 3.6-1.3 0-2-1.1-2-3 0-.6.1-1.1.2-1.6H9.8c-.6.4-1 1.1-1 2 0 2.3 1.9 3.5 5.1 3.5 3.6 0 5.8-1.8 5.8-5.7V28.3c0-1.4.3-1.6 2-1.8v-.9h-7.6v.9c1.7.2 2 .4 2 1.8zm15.6-5.4c0-3-1.7-4.2-4.9-4.2-2.8 0-4.9 1.1-4.9 3.2 0 .8.4 1.4 1.1 1.6l2.1-.3c-.1-.6-.2-1.1-.2-1.6 0-1.2.5-2.2 1.7-2.2 1.3 0 1.8 1.1 1.8 2.5V37l-3.7 1.4c-1.9.7-3.4 1.6-3.4 3.8 0 2 1.3 3.3 3.3 3.3 1.8 0 3.1-1.1 3.9-2.2.3 1.4 1.1 2.2 2.5 2.2 1.2 0 2.1-.5 2.8-1.4l-.2-.6c-.3.1-.6.3-1 .3-.6 0-.8-.6-.8-1.4zm-5.4 7.9c-1.3 0-1.9-.9-1.9-2.3s.6-2 1.7-2.4l2.1-.9v4.8c-.7.5-1.1.8-1.9.8zm24.9-.2c0 .9-.3 1.1-1.5 1.1v.8h6.4v-.8c-1.1-.1-1.5-.2-1.5-1.1v-7.7c0-2.7-1.1-4.1-3.4-4.1-2.1 0-3.5 1.2-4.5 2.6-.3-1.8-1.4-2.6-3.2-2.6-2.1 0-3.4 1.1-4.4 2.5l.1-2.5h-.6L34.2 33v.5l1.5.9v9c0 .9-.4 1.1-1.6 1.1v.8h6.5v-.8c-1.1-.1-1.5-.2-1.5-1.1v-8.6c.8-.6 1.6-1.1 2.6-1.1 1.3 0 1.8.7 1.8 2.2v7.5c0 .9-.3 1.1-1.5 1.1v.8h6.4v-.8c-1.1-.1-1.5-.2-1.5-1.1v-8.6c.8-.6 1.6-1.1 2.5-1.1 1.3 0 1.8.7 1.8 2.2zm11.3-11.9c-3.4 0-6.1 3-6.1 7.4 0 3.9 2.4 6.7 6 6.7 2.8 0 4.7-1.7 5.3-4.3l-.4-.2c-.9 1.3-2 2.1-3.7 2.1-2.4 0-4.2-2.1-4.1-5.7h8.1v-.6c0-3.1-1.8-5.4-5.1-5.4zm-.2 1c1.6 0 2.2 1.6 2.2 4h-5c.2-2.3 1.1-4 2.8-4zm10.9 13.1c3 0 5-1.6 5-4.3 0-2.5-1.6-3.6-4.3-4.5-1.9-.7-2.7-1.3-2.7-2.5 0-1.1.8-1.9 2-1.9 1.8 0 2.8 1.5 3.2 3.3h.8v-3.1c-1.1-.7-2.4-1.1-4-1.1-2.7 0-4.6 1.5-4.6 4.1 0 2.4 1.4 3.5 4 4.4 2 .7 2.9 1.3 2.9 2.6 0 1.4-1 2.1-2.4 2.1-1.9 0-3.2-1.7-3.7-3.9h-.9l.1 3.5c1.2.8 2.7 1.3 4.6 1.3zm10.2-17.1h-.8c-1.1 1.7-2.5 3.1-4.2 3.9v.6h1.5v8.7c0 2.9 1.5 4 3.5 4 1.8 0 3-.9 3.8-2.2L87 43c-.6.5-1.2.7-1.9.7-1.2 0-1.7-.7-1.7-2.2V33h3.2v-1.2h-3.2zm10.2 17.1c3.7 0 6.4-3 6.4-7.3 0-4-2.6-6.8-6.4-6.8-3.7 0-6.4 3-6.4 7.3 0 4.1 2.5 6.8 6.4 6.8zm.1-.9c-2 0-2.8-2.9-2.8-6.7 0-3.3.8-5.5 2.7-5.5 2 0 2.8 2.9 2.8 6.7-.1 3.3-.9 5.5-2.7 5.5zm20.9-3.7l-2.4-6.8c-.1-.3-.1-.5-.1-.7 0-.7.5-.7 1.6-.9v-.8h-6.3v.8c.8.2 1 .4 1.2 1l.8 2.2-2.1 5.5-2.6-7c-.1-.3-.2-.5-.2-.7 0-.6.5-.7 1.4-.8V32h-6.5v.8c.9.3 1.1.4 1.3 1l4.9 11.9h1l3.3-8.2 3 8.2h1.1l4.7-11.9c.2-.5.4-.7 1.3-1V32h-4.1v.8c1 .1 1.5.3 1.5.9 0 .2 0 .4-.1.7zm15.6 2.4c0 .9-.4 1.1-1.5 1.1v.8h6.5v-.8c-1.1-.1-1.5-.2-1.5-1.1v-7.7c0-2.8-1.2-4.2-3.6-4.2-2.1 0-3.5 1.2-4.6 2.5l.1-2.5h-.6l-4.4 1.4v.5l1.5.9v9c0 .9-.4 1.1-1.6 1.1v.8h6.5v-.8c-1.1-.1-1.5-.2-1.5-1.1v-8.6c.8-.6 1.7-1.1 2.8-1.1 1.4 0 1.9.7 1.9 2.2z" class="st0"/><path id="path12033" d="M74.4 57.9H0V16.7L74.4 0v28h-2V2.5L2 18.4v37.5h70.5v-6.8h2v8.8z" class="st0"/></svg>