<svg xmlns="http://www.w3.org/2000/svg" height="800" width="1200" version="1.0" viewBox="-24.159375 -11.875 209.38125 71.25"><path d="M11.3438 0C6.4775 0 .8125 2.3225.8125 8.2813c0 5 3.8763 6.7675 7.5625 7.875 3.7125 1.16 7.4375 1.6262 7.4375 4.0312 0 2.0225-2.1425 2.7813-4.1875 2.7813-2.885 0-4.7588-1.0438-4.9063-4.25H0c.025 4.6887 2.3925 7.46 5.75 8.7812h-2v19.5625h5.9063v-6.2813h3.8125c3.35 0 5.585-1.0562 6.6875-3.1562v9.4375h5.9062v-6.8438h3.4688c1.8612 0 2.3062 1.2213 2.4687 3.4688l.0313.3125c.0887 1.0875.2237 2.3.625 2.875l.125.1875H39l-.6875-.6875c-.4925-.4875-.6388-2.7212-.6875-3.5625 1.7025 2.9588 4.8 4.5938 8.6875 4.5938 4.2663 0 7.6162-2.0538 9.1563-5.5313v5.2188h5.875v-6.25h3.8124c3.2563 0 5.4613-1.0176 6.5938-3v9.25h22.7813v-6.8126H98c1.8612 0 2.305 1.2238 2.4688 3.4688 0 .0112.0311.3125.0311.3125.0889 1.085.2226 2.3013.625 2.875l.125.1563h6.2188l-.6875-.6563c-.5062-.505-.6412-2.8788-.6875-3.6563l-.0311-.3124c-.2526-2.7213-1.245-3.9788-2.2813-4.5313 1.5787-.925 2.5313-2.6437 2.5313-4.6875 0-.25-.0338-.5138-.0626-.75h4.0938v14.5625h5.9062V32.5h5.0938v14.5625h5.9062V27.9687h.6875v19.0938h17.2188v-1.7813c1.5562 1.4263 3.99 2.2188 6.9375 2.2188 5.6974 0 8.9687-2.4263 8.9687-6.6563 0-3.7074-3.2163-5.0312-6-5.7812-.6163-.1613-1.195-.305-1.7813-.4375-1.86-.425-3.625-.835-3.625-1.6563 0-1.1462 1.7438-1.1874 2.0938-1.1874 1.08 0 1.9563.2474 2.4063.7187.2712.2875.3975.67.375 1.125l-.0313.4063h5.9375v-.4063c-.0137-2.0762-.9337-3.7637-2.6563-4.9063-.4212-.28-.9012-.5462-1.4062-.75h3.9063V9.5938h-4.6875v11.3438h-.0625l-6.7188-11.3438h-5.1563V27.5h-1.7812V9.5937h-5v14.25h-12.4375v-3.5H133v-3.6874h-8.5625v-3.2188h10.3438V9.625h-31.375v2.4063c-1.385-1.9313-4.0675-2.7813-6.75-2.7813-3.625 0-7.875 1.5588-7.875 5.5625 0 3.3675 2.8774 4.535 5.625 5.2813 2.7812.7437 5.5624 1.0687 5.5624 2.6874 0 1.365-1.575 1.875-3.0937 1.875-2.1437 0-3.5488-.6837-3.6563-2.8437h-5c.0175 2.9887 1.58 4.8087 3.875 5.75H88.625v14.5313H77.6562v-2.7813h8.75V34.75h-8.75v-2.4688h10.5626v-4.3124h.375c-.6725-.6688-.7563-3.3526-.8126-4.125-.1612-1.7476-.735-3.915-2.7812-4.375v-.0626c2.0237-.7412 3-2.6324 3-4.625 0-3.7112-3.3225-5.1562-6.7188-5.1562h-9.8124v14.2188H60.125v-3.5h8.5625v-3.6876H60.125v-3.2187h10.3438V9.625h-14.625v-.0313h-5.25l-3.7813 13.6875H46.75L42.9687 9.5938H37.75l4.7188 14.25h-7.375v-14.25h-5.0313V27.5h-2.4063V9.5937h-5V27.5h-2.5v3.1875c-.8024-1.415-2.1724-2.4112-4.0312-2.875 3.6375-1.0737 6.375-3.59 6.375-8.4688 0-4.92-3.745-6.7674-7.4688-7.875-3.7612-1.16-7.5-1.5275-7.5-3.625C7.5313 6.05 9.3589 5.5 10.8125 5.5c2.0737 0 4.2637.8013 4.1563 3.2813h6.7187C21.6513 2.6338 16.495 0 11.3437 0zM55.125 11.6563v16.3124h.3438v4.7188c-1.0963-2.49-3.1176-4.2613-5.75-5.0625zm41.0938 1.2812c1.545 0 3.205.5463 3.125 2.2188h5c-.004-.5063-.0464-1.0025-.1563-1.4375h4.9688v13.8125H104.5v1.6874c-.9175-.7575-2.1775-1.26-3.625-1.5 2.37-.815 4.0938-2.4987 4.0938-5.5 0-3.3175-2.7863-4.5687-5.5626-5.3124-2.815-.7438-5.5937-.9926-5.5937-2.4063 0-1.2075 1.3225-1.5625 2.4063-1.5625zm-19.75.5h4c1.405 0 2.5312.6288 2.5312 2 0 1.395-.8 2.1563-2.3125 2.1563h-4.2188zm37.6874.2813h5.2813v13.8125h-5.2813zm34.2188 2.8125h.0625L154.875 27.5c-.85-.1938-1.77-.2813-2.7188-.2813-1.295 0-2.605.19-3.7812.5626zm-71.9063 4.7812h3.8126c2.3462 0 2.6774 1.9013 2.8124 3.75.0438.425.08 1.7112.3438 2.5h-6.9688zM33.75 27.9688h8.1875c-1.815.7637-3.2837 2.0387-4.2813 3.75-.5087-1.9913-2.0612-3.165-3.9062-3.75zm11.5 0h2.0938c4.33.3775 7.3874 3.1837 8.0937 7.4687.0012.0263.0725.5012.0938.7813.0387.4874.015 1.3074-.0626 2.4062-.0162.2075-.1174.9137-.125.9688-.92 4.405-4.2887 7.0312-9.0312 7.0312-4.11 0-7.245-2.005-8.5938-5.5-.0125-.0387-.4287-1.4338-.4374-1.4688-.1626-.755-.25-1.5612-.25-2.375 0-.4387.015-.8587.0624-1.2812.1213-.98.3438-1.7325.4063-1.9375.1163-.3812.1588-.575.25-.7188.0488-.12.0912-.2112.0938-.2187 1.2824-3.01 3.9387-4.8525 7.4062-5.1563zm22.9375 0H71.75v2.5937c-.755-1.23-1.97-2.1125-3.5625-2.5938zm76.2188 0h3.375c-1.4588.57-2.6713 1.4662-3.375 2.7187zm7.75.0312c3.3162 0 7.16 1.405 7.4375 5.25h-4.3125c-.0538-.4925-.2275-.9325-.5625-1.2813-.8163-.86-2.2063-1-2.9688-1-1.395 0-2.9063.5276-2.9063 2 0 1.455 1.9788 1.9188 4.25 2.4376.58.1324 1.18.2474 1.7813.4062 2.6662.7137 5.375 1.8838 5.375 5.0313 0 5.1-5.1063 5.875-8.1563 5.875-3.0487 0-5.4887-.865-6.8437-2.4376-.2075-.2787-.5012-.73-.5625-.8437-.1062-.2025-.3212-.7312-.4063-.9375-.1737-.515-.28-1.0837-.3125-1.6875h4.3125c.2425 1.9588 1.61 2.9375 4.125 2.9375 2.1926 0 3.5313-.8862 3.5313-2.3125 0-1.6688-2.0488-2.175-4.4375-2.75l-1.5-.375c-2.8275-.765-5.4688-1.9163-5.4688-5.0313 0-4.1687 4.7988-5.2812 7.625-5.2812zm-147.625.3125h8.9375c1.9087 0 6.3612.5038 6.6562 5.1563l-.1563 2.2812c-.5975 2.8563-2.71 4.25-6.5 4.25H8.875v6.25H4.5312V28.3125zm16.4062 0h9.625c2.9575 0 6.2188 1.18 6.4688 4.4688v.0937c0 .0612.0036.1175 0 .2188 0 0-.0513.9312-.125 1.2187-.0738.29-.2113.7712-.3126 1.0313-.075.1912-.275.4862-.2812.5-.495.7862-1.2 1.36-2.0938 1.6874l-.25.0938v.6563l.3126.0624c.9224.2063 1.56.8126 2 1.8438.0162.0525.3937 1.2388.4062 1.2813.0613.3124.0938.6524.125 1 0 .0036.0313.3124.0313.3124.0787 1.3375.2112 2.6288.5312 3.4688h-4.1563c-.2462-.565-.33-1.7637-.375-2.3125l-.0312-.3125c-.1063-1.4562-.3287-4.1875-3.2813-4.1875H25.25V46.25h-4.3125V28.3125zm84.3438 0h16.0624v3.4063h-5.875V46.25h-4.3124V31.7187h-5.875v-3.4062zm16.8437 0h4.3125V46.25h-4.3125V28.3125zm6.625 0h14.8438v3.125h-10.5313V35.5H141.5v2.9688h-8.4375v4.375h10.5c.07.165.3088.7237.4375.9687.0637.1187.22.3525.375.5625v1.875H128.75V28.3125zm-72.5.0313h8.9063c1.7937 0 5.935.4562 6.5937 4.5v2.3124c-.0312.2738-.0537.5413-.0625.5938-.5825 2.885-2.7237 4.3125-6.5313 4.3125h-4.5937v6.25H56.25V28.3437zm16.3125 0h14.875v3.125H76.875v4.0937h8.75v2.9688h-8.75v4.375h11.75v3.4062H72.5625V35.2187c.0238-.2075.0238-.4324.0313-.5624.0036-.1138.0312-.31.0312-.5313 0-.42-.0313-.9063-.0313-.9375v-.0313c-.0137-.1224-.0124-.2524-.0312-.375v-4.4374zm16.8438 0h9.625c2.3374 0 4.3087.725 5.4062 1.9374.18.2413.3937.5113.4375.5938.0525.1.3638.7125.5 1.2188.0812.3562.125.7562.125 1.1562 0 2.065-1.045 3.695-2.8125 4.3438l-.25.0937v.625l.2813.0938c1.4712.33 2.34 1.715 2.5624 4.125 0 .0024.0313.2812.0313.2812.0774 1.3413.1787 2.66.5 3.5h-4.125c-.2463-.5625-.36-1.765-.4063-2.3125l-.0312-.3125c-.105-1.4562-.2987-4.1875-3.25-4.1875h-4.2813v6.8125h-4.3124V28.3437zm-43.0938 3c-3.66 0-4.9688 3.0674-4.9688 5.9374 0 2.8688 1.3088 5.9376 4.9688 5.9376 3.6587 0 4.9688-3.0688 4.9688-5.9376 0-2.87-1.31-5.9374-4.9688-5.9374zm-37.4375.0937v5.5938h3.8125c2.03 0 3.1563-.9863 3.1563-2.75 0-1.8238-1.1563-2.8438-3.1563-2.8438zm16.375 0v5.0313h4.7188c1.7574 0 2.75-.9638 2.75-2.625 0-1.4988-1.1238-2.4063-2.9688-2.4063zm35.3125.0313v5.5937h3.8438c2.0287 0 3.125-.9563 3.125-2.7188 0-1.8237-1.1263-2.875-3.125-2.875zm33.1563 0v5.0624h4.7187c1.7575 0 2.75-.9662 2.75-2.625 0-1.5012-1.1275-2.4374-2.9688-2.4374zm-47.4063.6874c3.0737 0 4.1563 2.6388 4.1563 5.125 0 2.4838-1.0826 5.1563-4.1563 5.1563-3.0737 0-4.1875-2.6725-4.1875-5.1563 0-2.4862 1.1138-5.125 4.1875-5.125zm-36.6563.0626h3.0313c1.0738 0 2.3438.3462 2.3438 2.0624 0 .48.0087 1.9688-2.3438 1.9688H9.6562v-4.0313zm16.4063 0H29.75c.66 0 2.1875.1474 2.1875 1.625 0 1.2074-.6587 1.8437-1.9688 1.8437h-3.9062v-3.4688zm107.7813 0h10c-.065.3387-.0937.6862-.0937 1.0624 0 3.6588 3.0474 5.0026 6.0312 5.8126.001 0 1.5313.375 1.5313.375 2.0624.495 3.8437.9262 3.8437 1.9687 0 1.4475-2.29 1.5-2.75 1.5-2.2525 0-3.255-.7562-3.3438-2.5313l-.0312-.375h-5.875v.4063c.001.57.0437 1.115.1563 1.625h-9.4688V39.25h8.4688v-4.5313h-8.4688v-2.5zm-72.5.0624h3.0624c1.0738 0 2.3438.3476 2.3438 2.0626 0 .48.0088 1.9374-2.3438 1.9374h-3.0624v-4zm33.1874 0h3.6876c.6587 0 2.1874.1463 2.1874 1.625 0 1.2075-.6587 1.8126-1.9687 1.8126h-3.9063v-3.4376zM36.25 37.1876v.0938c0 .4825.01.9724.0625 1.4374-.2913-.3437-.6188-.6437-1-.8437.3375-.1975.6575-.4188.9375-.6875z" fill="#0079bb"/></svg>