<?xml version="1.0" encoding="UTF-8"?>
<svg version="1.1" viewBox="0 0 135 42.73" xmlns="http://www.w3.org/2000/svg" xmlns:cc="http://creativecommons.org/ns#" xmlns:dc="http://purl.org/dc/elements/1.1/" xmlns:rdf="http://www.w3.org/1999/02/22-rdf-syntax-ns#">
<title>Loblaw Companies Limited logo</title> 
<metadata>
  <rdf:RDF>
   <cc:Work rdf:about="">
    <dc:format>image/svg+xml</dc:format>
    <dc:type rdf:resource="http://purl.org/dc/dcmitype/StillImage"/>
    <dc:title/>
   </cc:Work>
  </rdf:RDF>
 </metadata>
 <g transform="matrix(.9838 0 0 .9658 -278 -630.9)">
  <g fill="#686366">
   <path d="m292.5 693.4-0.1562 0.3711c-0.1465-0.1025-0.3809-0.1514-0.6982-0.1514-0.3027 0-0.542 0.122-0.7226 0.3613-0.1807 0.2441-0.2686 0.5566-0.2686 0.9424 0 0.3613 0.0928 0.6543 0.2783 0.8838 0.1856 0.2246 0.4248 0.3418 0.7178 0.3418 0.3174 0 0.5615-0.1074 0.7324-0.3223l0.2588 0.3369c-0.2734 0.2539-0.6152 0.3809-1.045 0.3809-0.4443 0-0.7959-0.1514-1.05-0.4541s-0.3809-0.7031-0.3809-1.196c0-0.4785 0.1318-0.8789 0.4102-1.191 0.2686-0.3223 0.625-0.4785 1.055-0.4785 0.3711 0 0.6592 0.0586 0.8691 0.1758"/>
   <path d="m298.5 694.9c0 0.3711 0.0781 0.6738 0.2295 0.9228 0.1514 0.249 0.3711 0.3711 0.6494 0.3711 0.3174 0 0.5615-0.1122 0.7275-0.3418 0.166-0.2246 0.249-0.542 0.249-0.9522 0-0.8252-0.3272-1.24-0.9766-1.24-0.2881 0-0.5078 0.1122-0.6543 0.3369-0.1514 0.2197-0.2246 0.5225-0.2246 0.9033m-0.4883 0c0-0.459 0.1221-0.8496 0.3711-1.167 0.2441-0.3125 0.5762-0.4688 0.9961-0.4688 0.4736 0 0.835 0.1465 1.089 0.4346 0.2539 0.2881 0.376 0.6885 0.376 1.201 0 0.5273-0.127 0.9424-0.376 1.24-0.2539 0.2979-0.6152 0.4492-1.089 0.4492-0.4248 0-0.7617-0.1562-1.006-0.4736-0.2441-0.3174-0.3613-0.7178-0.3613-1.216"/>
   <path d="m309 696.5-0.4053-2.065-0.7422 2.109h-0.1172l-0.7666-2.109-0.3955 2.065h-0.4394l0.6348-3.213h0.21l0.8154 2.344 0.7471-2.344h0.21l0.6934 3.213"/>
   <path d="m315.3 693.7v1.186c0.2002 0.0146 0.3027 0.0195 0.3125 0.0195 0.581 0 0.8642-0.21 0.8642-0.6396 0-0.3906-0.3027-0.5859-0.9228-0.5859l-0.2539 0.0195m0 1.582v1.235h-0.4639v-3.213c0.3516-0.0146 0.5664-0.0195 0.6348-0.0195 0.9912 0 1.489 0.3125 1.489 0.9375 0 0.7227-0.4394 1.079-1.314 1.079-0.0537 0-0.166-5e-3 -0.3467-0.0195"/>
   <path d="m323.7 694.1-0.5273 1.416h1.011zm0.8496 2.417-0.2344-0.6787h-1.27l-0.2539 0.6787h-0.5176l1.387-3.257h0.1221l1.284 3.257"/>
   <path d="m332.6 696.6-1.758-2.349v2.305h-0.4443v-3.213h0.1856l1.714 2.217v-2.217h0.4443v3.257"/>
   <path d="m338.6 696.5h0.4688v-3.213h-0.4688z"/>
   <path d="m345.4 693.7v0.8936h1.104v0.3711h-1.104v1.157h1.543v0.3955h-2.007v-3.213h2.007v0.3955"/>
   <path d="m352.4 696.4 0.166-0.4004c0.0879 0.0586 0.1953 0.1074 0.3272 0.1465 0.1318 0.039 0.2441 0.0586 0.3467 0.0586 0.1807 0 0.3272-0.0439 0.4394-0.1416 0.1074-0.0928 0.166-0.21 0.166-0.3564l-0.0976-0.2978c-0.0586-0.0976-0.2148-0.1953-0.459-0.3027l-0.2734-0.1221c-0.2344-0.1025-0.3955-0.2246-0.4883-0.3662-0.0928-0.1367-0.1367-0.3076-0.1367-0.5029 0-0.2441 0.0879-0.4394 0.2686-0.6006 0.1807-0.1562 0.4102-0.2344 0.6934-0.2344 0.376 0 0.6396 0.0586 0.7861 0.1709l-0.1367 0.3809c-0.0635-0.039-0.1562-0.0781-0.2832-0.1221-0.127-0.039-0.2441-0.0586-0.3564-0.0586-0.1562 0-0.2783 0.044-0.3711 0.127-0.0927 0.0879-0.1367 0.1953-0.1367 0.3272l0.0489 0.2246 0.1367 0.1709c0.0586 0.044 0.1758 0.1074 0.3564 0.1904l0.2783 0.122c0.2295 0.1025 0.3955 0.2295 0.4883 0.3711 0.0976 0.1465 0.1416 0.3272 0.1416 0.5518 0 0.2393-0.1025 0.4443-0.3076 0.6104-0.2051 0.1709-0.4785 0.2539-0.8252 0.2539-0.3027 0-0.5566-0.0684-0.7715-0.2002"/>
   <path d="m366.3 696.5v-3.213h0.4639v2.817h1.548v0.3955"/>
   <path d="m373.9 696.5h0.4639v-3.213h-0.4639z"/>
   <path d="m382.7 696.5-0.4102-2.065-0.7422 2.109h-0.1122l-0.7715-2.109-0.3955 2.065h-0.4394l0.6396-3.213h0.21l0.8106 2.344 0.7471-2.344h0.2148l0.6885 3.213"/>
   <path d="m388.7 696.5h0.4688v-3.213h-0.4688z"/>
   <path d="m396.2 693.7v2.817h-0.4639v-2.817h-1.089v-0.3955h2.686v0.3955"/>
   <path d="m403.3 693.7v0.8936h1.104v0.3711h-1.104v1.157h1.548v0.3955h-2.012v-3.213h2.012v0.3955"/>
   <path d="m410.9 693.7v2.398c0.1025 0.0146 0.2344 0.0244 0.3857 0.0244 0.3272 0 0.581-0.1171 0.7666-0.3467 0.1856-0.2295 0.2832-0.5518 0.2832-0.957 0-0.7617-0.3613-1.138-1.089-1.138-0.044 0-0.1611 5e-3 -0.3467 0.0195m0.2197 2.817h-0.6836v-3.213c0.4346-0.0146 0.7178-0.0195 0.8398-0.0195 0.4785 0 0.8496 0.1367 1.128 0.4053 0.2783 0.2734 0.4199 0.6396 0.4199 1.094 0 1.152-0.5664 1.733-1.704 1.733"/>
  </g>
  <path d="m284.6 688.5h133.8" fill="none" stroke="#686366" stroke-linecap="round" stroke-linejoin="round" stroke-width="1.25"/>
  <path d="m365.4 670.6c-2.744 0.376-5.493 1.108-6.865 3.354v-6.006h6.069c0.2246-2.466 1.768-3.433 4.155-3.433 2.197 0 4.053 0.3906 4.053 3.086 0 2.564-3.574 2.427-7.412 2.998m7.412 4.331c0 1.362-0.1709 5.244-5.078 5.244-2.026 0-3.838-0.5664-3.838-2.91 0-2.295 1.772-2.964 3.711-3.354 1.938-0.3516 4.141-0.3955 5.205-1.323zm-30.98 4.717c-3.706 0-5.332-3.491-5.332-7.285 0-3.833 1.626-7.319 5.332-7.319 3.706 0 5.337 3.486 5.337 7.319 0 3.794-1.631 7.285-5.337 7.285m-21.51 0c-4.238 0-5.522-3.667-5.522-7.285 0-3.657 1.284-7.319 5.522-7.319 4.277 0 5.557 3.662 5.557 7.319 0 3.618-1.279 7.285-5.557 7.285m90.67-18.71h-6.436l-4.185 15.44h-0.0976l-3.877-15.44h-6.089l-3.789 15.49h-0.0928l-4.189-15.49h-6.611l0.1904 0.6006c-1.943-0.9522-4.468-1.216-6.763-1.216-4.683 0-9.487 1.484-10.52 6.255v-12.68h-6.26v12.22c-1.719-3.975-5.088-5.791-8.281-5.791-2.822 0-5.649 1.06-7.192 3.398h-0.083v-9.824h-6.26v11.73c-1.963-3.34-5.522-5.303-10.13-5.303-7.148 0-11.78 4.761-11.78 12.04 0 1.772 0.2734 3.394 0.8008 4.829h-6.362c-5.142 0-5.064-2.495-5.064-4.478v-18.82h-6.304s0.0635 18.6 0 22.23c0 7.236 5.493 7.456 10.31 7.456h10.74v-1.689c1.968 1.587 4.585 2.476 7.661 2.476 4.609 0 8.169-1.968 10.13-5.288v4.668h5.947v-2.91h0.0976c1.362 2.51 4.131 3.53 7.49 3.53 3.193 0 6.562-1.812 8.281-5.806v5.186h6.26v-2.627c1.299 2.197 3.872 3.247 6.865 3.247 2.783 0 5.693-0.7471 7.676-2.827 0.044 0.752 0.2246 1.504 0.4443 2.207h6.343c-0.5664-0.9277-0.7861-2.998-0.7861-5.078v-6.86l3.784 11.94h6.484l3.882-15.31h0.083l4.062 15.31h6.436" fill="#686366"/>
 </g>
</svg>
